<mxfile host="Electron" modified="2024-07-11T16:36:20.888Z" agent="Mozilla/5.0 (Macintosh; Intel Mac OS X 10_15_7) AppleWebKit/537.36 (KHTML, like Gecko) draw.io/24.6.4 Chrome/124.0.6367.207 Electron/30.0.6 Safari/537.36" etag="TPAvTphbasfrA9UPoWTe" version="24.6.4" type="device">
  <diagram name="Page-1" id="uwYFHQ89Y9JYOTqGWs60">
    <mxGraphModel dx="853" dy="935" grid="1" gridSize="10" guides="1" tooltips="1" connect="1" arrows="1" fold="1" page="1" pageScale="1" pageWidth="850" pageHeight="1100" math="0" shadow="0">
      <root>
        <mxCell id="0" />
        <mxCell id="1" parent="0" />
        <mxCell id="GJ2DIzfqfL1tHKUmEugE-82" value="&lt;p style=&quot;margin: 4px 0px 0px; text-align: center; line-height: 150%;&quot;&gt;&lt;b&gt;Year_month&lt;/b&gt;&lt;/p&gt;&lt;hr size=&quot;1&quot; style=&quot;border-style: solid; line-height: 150%;&quot;&gt;&lt;p style=&quot;margin: 0px 0px 0px 4px; line-height: 150%;&quot;&gt;+ year_id: Int&amp;nbsp;&lt;br&gt;&lt;/p&gt;&lt;p style=&quot;margin: 0px 0px 0px 4px; line-height: 150%;&quot;&gt;+ month_id: Int&amp;nbsp;&lt;br&gt;&lt;/p&gt;&lt;p style=&quot;margin: 0px 0px 0px 4px; line-height: 150%;&quot;&gt;+ year: Int&lt;br&gt;&lt;/p&gt;&lt;p style=&quot;margin: 0px 0px 0px 4px; line-height: 150%;&quot;&gt;+ month: Int&lt;/p&gt;&lt;hr size=&quot;1&quot; style=&quot;border-style: solid; line-height: 150%;&quot;&gt;&lt;p style=&quot;margin: 0px 0px 0px 4px; line-height: 150%;&quot;&gt;+ edit()&lt;/p&gt;" style="verticalAlign=top;align=left;overflow=fill;html=1;whiteSpace=wrap;" parent="1" vertex="1">
          <mxGeometry x="160" y="880" width="160" height="150" as="geometry" />
        </mxCell>
        <mxCell id="GJ2DIzfqfL1tHKUmEugE-84" value="&lt;p style=&quot;margin: 4px 0px 0px; text-align: center; line-height: 150%;&quot;&gt;&lt;b&gt;Day&lt;/b&gt;&lt;/p&gt;&lt;hr size=&quot;1&quot; style=&quot;border-style: solid; line-height: 150%;&quot;&gt;&lt;p style=&quot;margin: 0px 0px 0px 4px; line-height: 150%;&quot;&gt;+ day_id: Int&lt;/p&gt;&lt;p style=&quot;margin: 0px 0px 0px 4px; line-height: 150%;&quot;&gt;+ day&lt;br&gt;&lt;/p&gt;&lt;p style=&quot;margin: 0px 0px 0px 4px; line-height: 150%;&quot;&gt;+ status&lt;/p&gt;&lt;hr size=&quot;1&quot; style=&quot;border-style: solid; line-height: 150%;&quot;&gt;&lt;p style=&quot;margin: 0px 0px 0px 4px; line-height: 150%;&quot;&gt;+ create()&lt;/p&gt;&lt;p style=&quot;margin: 0px 0px 0px 4px; line-height: 150%;&quot;&gt;+ get()&lt;/p&gt;&lt;p style=&quot;margin: 0px 0px 0px 4px; line-height: 150%;&quot;&gt;+ edit()&lt;br&gt;&lt;/p&gt;&lt;p style=&quot;margin: 0px 0px 0px 4px; line-height: 150%;&quot;&gt;+ delete()&lt;br&gt;&lt;/p&gt;" style="verticalAlign=top;align=left;overflow=fill;html=1;whiteSpace=wrap;" parent="1" vertex="1">
          <mxGeometry x="360" y="880" width="160" height="190" as="geometry" />
        </mxCell>
        <mxCell id="GJ2DIzfqfL1tHKUmEugE-87" value="&lt;p style=&quot;margin: 4px 0px 0px; text-align: center; line-height: 150%;&quot;&gt;&lt;b&gt;Shift&lt;/b&gt;&lt;/p&gt;&lt;hr size=&quot;1&quot; style=&quot;border-style: solid; line-height: 150%;&quot;&gt;&lt;p style=&quot;margin: 0px 0px 0px 4px; line-height: 150%;&quot;&gt;+ shift_id: Int&lt;/p&gt;&lt;p style=&quot;margin: 0px 0px 0px 4px; line-height: 150%;&quot;&gt;+ day_id: Int&lt;/p&gt;&lt;p style=&quot;margin: 0px 0px 0px 4px; line-height: 150%;&quot;&gt;+ is_day: bool&amp;nbsp;&lt;br&gt;&lt;/p&gt;&lt;p style=&quot;margin: 0px 0px 0px 4px; line-height: 150%;&quot;&gt;+ approved_staff: Int&lt;/p&gt;&lt;p style=&quot;margin: 0px 0px 0px 4px; line-height: 150%;&quot;&gt;+ minimum_staff: Int&lt;/p&gt;&lt;p style=&quot;margin: 0px 0px 0px 4px; line-height: 150%;&quot;&gt;+ maximum_staff: Int&lt;/p&gt;&lt;p style=&quot;margin: 0px 0px 0px 4px; line-height: 150%;&quot;&gt;+ optimal_staff: Int&lt;/p&gt;&lt;p style=&quot;margin: 0px 0px 0px 4px; line-height: 150%;&quot;&gt;+ status: Str&lt;/p&gt;&lt;hr size=&quot;1&quot; style=&quot;border-style: solid; line-height: 150%;&quot;&gt;&lt;p style=&quot;margin: 0px 0px 0px 4px; line-height: 150%;&quot;&gt;+ edit()&lt;/p&gt;&lt;p style=&quot;margin: 0px 0px 0px 4px; line-height: 150%;&quot;&gt;+ get()&lt;/p&gt;&lt;p style=&quot;margin: 0px 0px 0px 4px; line-height: 150%;&quot;&gt;+ change_status()&lt;br&gt;&lt;/p&gt;" style="verticalAlign=top;align=left;overflow=fill;html=1;whiteSpace=wrap;" parent="1" vertex="1">
          <mxGeometry x="160" y="1120" width="160" height="280" as="geometry" />
        </mxCell>
        <mxCell id="GJ2DIzfqfL1tHKUmEugE-89" value="&lt;p style=&quot;margin: 4px 0px 0px; text-align: center; line-height: 150%;&quot;&gt;&lt;b&gt;Request&lt;/b&gt;&lt;/p&gt;&lt;hr size=&quot;1&quot; style=&quot;border-style: solid; line-height: 150%;&quot;&gt;&lt;p style=&quot;margin: 0px 0px 0px 4px; line-height: 150%;&quot;&gt;&lt;span style=&quot;background-color: initial;&quot;&gt;+ request_id: Int&lt;/span&gt;&lt;/p&gt;&lt;p style=&quot;margin: 0px 0px 0px 4px; line-height: 150%;&quot;&gt;+ user_id: Int&lt;/p&gt;&lt;p style=&quot;margin: 0px 0px 0px 4px; line-height: 150%;&quot;&gt;+ priority: Int&lt;/p&gt;&lt;p style=&quot;margin: 0px 0px 0px 4px; line-height: 150%;&quot;&gt;+ status: Str&lt;/p&gt;&lt;hr size=&quot;1&quot; style=&quot;border-style: solid; line-height: 150%;&quot;&gt;&lt;p style=&quot;margin: 0px 0px 0px 4px; line-height: 150%;&quot;&gt;+ approve()&lt;/p&gt;&lt;p style=&quot;margin: 0px 0px 0px 4px; line-height: 150%;&quot;&gt;+ reject()&lt;br&gt;&lt;/p&gt;" style="verticalAlign=top;align=left;overflow=fill;html=1;whiteSpace=wrap;" parent="1" vertex="1">
          <mxGeometry x="360" y="1120" width="160" height="240" as="geometry" />
        </mxCell>
        <mxCell id="GJ2DIzfqfL1tHKUmEugE-90" value="&lt;p style=&quot;margin: 4px 0px 0px; text-align: center; line-height: 150%;&quot;&gt;&lt;b&gt;Approved&lt;/b&gt;&lt;/p&gt;&lt;hr size=&quot;1&quot; style=&quot;border-style: solid; line-height: 150%;&quot;&gt;&lt;p style=&quot;margin: 0px 0px 0px 4px; line-height: 150%;&quot;&gt;&lt;span style=&quot;background-color: initial;&quot;&gt;+ approval_id: Int&lt;/span&gt;&lt;/p&gt;&lt;p style=&quot;margin: 0px 0px 0px 4px; line-height: 150%;&quot;&gt;+ user_id: Int&lt;/p&gt;&lt;p style=&quot;margin: 0px 0px 0px 4px; line-height: 150%;&quot;&gt;+ priority: Int&lt;/p&gt;&lt;hr size=&quot;1&quot; style=&quot;border-style: solid; line-height: 150%;&quot;&gt;&lt;p style=&quot;margin: 0px 0px 0px 4px; line-height: 150%;&quot;&gt;+ edit()&lt;/p&gt;&lt;p style=&quot;margin: 0px 0px 0px 4px; line-height: 150%;&quot;&gt;+ delete()&lt;br&gt;&lt;/p&gt;" style="verticalAlign=top;align=left;overflow=fill;html=1;whiteSpace=wrap;" parent="1" vertex="1">
          <mxGeometry x="560" y="1120" width="160" height="150" as="geometry" />
        </mxCell>
        <mxCell id="GJ2DIzfqfL1tHKUmEugE-91" value="&lt;p style=&quot;margin: 4px 0px 0px; text-align: center; line-height: 150%;&quot;&gt;&lt;b&gt;User&lt;/b&gt;&lt;/p&gt;&lt;hr size=&quot;1&quot; style=&quot;border-style: solid; line-height: 150%;&quot;&gt;&lt;p style=&quot;margin: 0px 0px 0px 4px; line-height: 150%;&quot;&gt;+ user_id: Int&amp;nbsp;&lt;br&gt;&lt;/p&gt;&lt;p style=&quot;margin: 0px 0px 0px 4px; line-height: 150%;&quot;&gt;+ firstname: Str&lt;br&gt;&lt;/p&gt;&lt;p style=&quot;margin: 0px 0px 0px 4px; line-height: 150%;&quot;&gt;+ lastname: Str&lt;br&gt;&lt;/p&gt;&lt;p style=&quot;margin: 0px 0px 0px 4px; line-height: 150%;&quot;&gt;# email: Str&lt;br&gt;&lt;/p&gt;&lt;p style=&quot;margin: 0px 0px 0px 4px; line-height: 150%;&quot;&gt;- password: Str&lt;br&gt;&lt;/p&gt;&lt;p style=&quot;margin: 0px 0px 0px 4px; line-height: 150%;&quot;&gt;- role: Int&lt;br&gt;&lt;/p&gt;&lt;hr size=&quot;1&quot; style=&quot;border-style: solid; line-height: 150%;&quot;&gt;&lt;p style=&quot;margin: 0px 0px 0px 4px; line-height: 150%;&quot;&gt;- create()&lt;/p&gt;&lt;p style=&quot;margin: 0px 0px 0px 4px; line-height: 150%;&quot;&gt;+ get()&lt;/p&gt;&lt;p style=&quot;margin: 0px 0px 0px 4px; line-height: 150%;&quot;&gt;- edit()&lt;/p&gt;&lt;p style=&quot;margin: 0px 0px 0px 4px; line-height: 150%;&quot;&gt;- delete()&lt;/p&gt;" style="verticalAlign=top;align=left;overflow=fill;html=1;whiteSpace=wrap;" parent="1" vertex="1">
          <mxGeometry x="160" y="602" width="160" height="240" as="geometry" />
        </mxCell>
        <mxCell id="GJ2DIzfqfL1tHKUmEugE-92" value="&lt;p style=&quot;margin: 4px 0px 0px; text-align: center; line-height: 150%;&quot;&gt;&lt;b&gt;Nurse&lt;/b&gt;&lt;/p&gt;&lt;hr size=&quot;1&quot; style=&quot;border-style: solid; line-height: 150%;&quot;&gt;&lt;p style=&quot;margin: 0px 0px 0px 4px; line-height: 150%;&quot;&gt;+ user_id: Int&amp;nbsp;&lt;br&gt;&lt;/p&gt;&lt;p style=&quot;margin: 0px 0px 0px 4px; line-height: 150%;&quot;&gt;- band: Int&lt;br&gt;&lt;/p&gt;&lt;p style=&quot;margin: 0px 0px 0px 4px; line-height: 150%;&quot;&gt;&lt;span style=&quot;background-color: initial;&quot;&gt;- seniority: Int&lt;/span&gt;&lt;/p&gt;&lt;p style=&quot;margin: 0px 0px 0px 4px; line-height: 150%;&quot;&gt;- contract_type: Str&lt;/p&gt;&lt;hr size=&quot;1&quot; style=&quot;border-style: solid; line-height: 150%;&quot;&gt;&lt;p style=&quot;margin: 0px 0px 0px 4px; line-height: 150%;&quot;&gt;- send_request()&lt;/p&gt;" style="verticalAlign=top;align=left;overflow=fill;html=1;whiteSpace=wrap;" parent="1" vertex="1">
          <mxGeometry x="360" y="692" width="160" height="150" as="geometry" />
        </mxCell>
        <mxCell id="GJ2DIzfqfL1tHKUmEugE-93" value="&lt;p style=&quot;margin: 4px 0px 0px; text-align: center; line-height: 150%;&quot;&gt;&lt;b&gt;Manager&lt;/b&gt;&lt;/p&gt;&lt;hr size=&quot;1&quot; style=&quot;border-style: solid; line-height: 150%;&quot;&gt;&lt;p style=&quot;margin: 0px 0px 0px 4px; line-height: 150%;&quot;&gt;+ user_id: Int&amp;nbsp;&lt;/p&gt;&lt;hr size=&quot;1&quot; style=&quot;border-style: solid; line-height: 150%;&quot;&gt;&lt;p style=&quot;margin: 0px 0px 0px 4px; line-height: 150%;&quot;&gt;&lt;br&gt;&lt;/p&gt;" style="verticalAlign=top;align=left;overflow=fill;html=1;whiteSpace=wrap;" parent="1" vertex="1">
          <mxGeometry x="560" y="762" width="160" height="80" as="geometry" />
        </mxCell>
        <mxCell id="GJ2DIzfqfL1tHKUmEugE-214" value="" style="shape=table;startSize=0;container=1;collapsible=0;childLayout=tableLayout;movable=1;resizable=1;rotatable=1;deletable=1;editable=1;locked=0;connectable=1;swimlaneLine=1;" parent="1" vertex="1">
          <mxGeometry x="850" y="600" width="810" height="790" as="geometry" />
        </mxCell>
        <mxCell id="GJ2DIzfqfL1tHKUmEugE-215" style="shape=tableRow;horizontal=0;startSize=0;swimlaneHead=0;swimlaneBody=0;strokeColor=inherit;top=0;left=0;bottom=0;right=0;collapsible=0;dropTarget=0;fillColor=none;points=[[0,0.5],[1,0.5]];portConstraint=eastwest;movable=0;resizable=0;rotatable=0;deletable=0;editable=0;locked=1;connectable=0;" parent="GJ2DIzfqfL1tHKUmEugE-214" vertex="1">
          <mxGeometry width="810" height="47" as="geometry" />
        </mxCell>
        <mxCell id="GJ2DIzfqfL1tHKUmEugE-216" style="shape=partialRectangle;html=1;whiteSpace=wrap;connectable=0;strokeColor=inherit;overflow=hidden;fillColor=none;top=0;left=0;bottom=0;right=0;pointerEvents=1;" parent="GJ2DIzfqfL1tHKUmEugE-215" vertex="1">
          <mxGeometry width="271" height="47" as="geometry">
            <mxRectangle width="271" height="47" as="alternateBounds" />
          </mxGeometry>
        </mxCell>
        <mxCell id="GJ2DIzfqfL1tHKUmEugE-217" style="shape=partialRectangle;html=1;whiteSpace=wrap;connectable=0;strokeColor=inherit;overflow=hidden;fillColor=none;top=0;left=0;bottom=0;right=0;pointerEvents=1;" parent="GJ2DIzfqfL1tHKUmEugE-215" vertex="1">
          <mxGeometry x="271" width="276" height="47" as="geometry">
            <mxRectangle width="276" height="47" as="alternateBounds" />
          </mxGeometry>
        </mxCell>
        <mxCell id="GJ2DIzfqfL1tHKUmEugE-218" style="shape=partialRectangle;html=1;whiteSpace=wrap;connectable=0;strokeColor=inherit;overflow=hidden;fillColor=none;top=0;left=0;bottom=0;right=0;pointerEvents=1;" parent="GJ2DIzfqfL1tHKUmEugE-215" vertex="1">
          <mxGeometry x="547" width="263" height="47" as="geometry">
            <mxRectangle width="263" height="47" as="alternateBounds" />
          </mxGeometry>
        </mxCell>
        <mxCell id="GJ2DIzfqfL1tHKUmEugE-220" value="" style="shape=tableRow;horizontal=0;startSize=0;swimlaneHead=0;swimlaneBody=0;strokeColor=inherit;top=0;left=0;bottom=0;right=0;collapsible=0;dropTarget=0;fillColor=none;points=[[0,0.5],[1,0.5]];portConstraint=eastwest;" parent="GJ2DIzfqfL1tHKUmEugE-214" vertex="1">
          <mxGeometry y="47" width="810" height="743" as="geometry" />
        </mxCell>
        <mxCell id="GJ2DIzfqfL1tHKUmEugE-221" value="" style="shape=partialRectangle;html=1;whiteSpace=wrap;connectable=0;strokeColor=inherit;overflow=hidden;fillColor=none;top=0;left=0;bottom=0;right=0;pointerEvents=1;" parent="GJ2DIzfqfL1tHKUmEugE-220" vertex="1">
          <mxGeometry width="271" height="743" as="geometry">
            <mxRectangle width="271" height="743" as="alternateBounds" />
          </mxGeometry>
        </mxCell>
        <mxCell id="GJ2DIzfqfL1tHKUmEugE-222" value="" style="shape=partialRectangle;html=1;whiteSpace=wrap;connectable=0;strokeColor=inherit;overflow=hidden;fillColor=none;top=0;left=0;bottom=0;right=0;pointerEvents=1;" parent="GJ2DIzfqfL1tHKUmEugE-220" vertex="1">
          <mxGeometry x="271" width="276" height="743" as="geometry">
            <mxRectangle width="276" height="743" as="alternateBounds" />
          </mxGeometry>
        </mxCell>
        <mxCell id="GJ2DIzfqfL1tHKUmEugE-223" value="" style="shape=partialRectangle;html=1;whiteSpace=wrap;connectable=0;strokeColor=inherit;overflow=hidden;fillColor=none;top=0;left=0;bottom=0;right=0;pointerEvents=1;" parent="GJ2DIzfqfL1tHKUmEugE-220" vertex="1">
          <mxGeometry x="547" width="263" height="743" as="geometry">
            <mxRectangle width="263" height="743" as="alternateBounds" />
          </mxGeometry>
        </mxCell>
        <mxCell id="GJ2DIzfqfL1tHKUmEugE-280" style="edgeStyle=orthogonalEdgeStyle;rounded=0;orthogonalLoop=1;jettySize=auto;html=1;exitX=1;exitY=0.5;exitDx=0;exitDy=0;" parent="GJ2DIzfqfL1tHKUmEugE-214" source="GJ2DIzfqfL1tHKUmEugE-215" target="GJ2DIzfqfL1tHKUmEugE-215" edge="1">
          <mxGeometry relative="1" as="geometry" />
        </mxCell>
        <mxCell id="GJ2DIzfqfL1tHKUmEugE-281" style="edgeStyle=orthogonalEdgeStyle;rounded=0;orthogonalLoop=1;jettySize=auto;html=1;exitX=1;exitY=0.5;exitDx=0;exitDy=0;" parent="GJ2DIzfqfL1tHKUmEugE-214" source="GJ2DIzfqfL1tHKUmEugE-215" target="GJ2DIzfqfL1tHKUmEugE-215" edge="1">
          <mxGeometry relative="1" as="geometry" />
        </mxCell>
        <mxCell id="GJ2DIzfqfL1tHKUmEugE-225" value="Nurse" style="text;html=1;strokeColor=none;fillColor=none;align=center;verticalAlign=middle;whiteSpace=wrap;rounded=0;" parent="1" vertex="1">
          <mxGeometry x="950" y="612" width="60" height="30" as="geometry" />
        </mxCell>
        <mxCell id="GJ2DIzfqfL1tHKUmEugE-226" style="edgeStyle=orthogonalEdgeStyle;rounded=0;orthogonalLoop=1;jettySize=auto;html=1;entryX=0.5;entryY=0;entryDx=0;entryDy=0;" parent="1" source="GJ2DIzfqfL1tHKUmEugE-227" target="GJ2DIzfqfL1tHKUmEugE-233" edge="1">
          <mxGeometry relative="1" as="geometry" />
        </mxCell>
        <mxCell id="GJ2DIzfqfL1tHKUmEugE-227" value="" style="ellipse;whiteSpace=wrap;html=1;aspect=fixed;fillColor=#000000;" parent="1" vertex="1">
          <mxGeometry x="966.88" y="652" width="30" height="30" as="geometry" />
        </mxCell>
        <mxCell id="GJ2DIzfqfL1tHKUmEugE-228" value="App System" style="text;html=1;strokeColor=none;fillColor=none;align=center;verticalAlign=middle;whiteSpace=wrap;rounded=0;" parent="1" vertex="1">
          <mxGeometry x="1203.5" y="612" width="112.5" height="30" as="geometry" />
        </mxCell>
        <mxCell id="GJ2DIzfqfL1tHKUmEugE-231" value="Manager" style="text;html=1;strokeColor=none;fillColor=none;align=center;verticalAlign=middle;whiteSpace=wrap;rounded=0;" parent="1" vertex="1">
          <mxGeometry x="1463.25" y="612" width="112.5" height="30" as="geometry" />
        </mxCell>
        <mxCell id="GJ2DIzfqfL1tHKUmEugE-232" value="" style="edgeStyle=orthogonalEdgeStyle;rounded=0;orthogonalLoop=1;jettySize=auto;html=1;" parent="1" source="GJ2DIzfqfL1tHKUmEugE-233" target="GJ2DIzfqfL1tHKUmEugE-235" edge="1">
          <mxGeometry relative="1" as="geometry" />
        </mxCell>
        <mxCell id="GJ2DIzfqfL1tHKUmEugE-233" value="Submits roster preference" style="rounded=1;whiteSpace=wrap;html=1;" parent="1" vertex="1">
          <mxGeometry x="870.0000000000001" y="722" width="223.75" height="80" as="geometry" />
        </mxCell>
        <mxCell id="GJ2DIzfqfL1tHKUmEugE-234" value="" style="edgeStyle=orthogonalEdgeStyle;rounded=0;orthogonalLoop=1;jettySize=auto;html=1;entryX=0.5;entryY=0;entryDx=0;entryDy=0;" parent="1" source="GJ2DIzfqfL1tHKUmEugE-235" target="GJ2DIzfqfL1tHKUmEugE-237" edge="1">
          <mxGeometry relative="1" as="geometry">
            <mxPoint x="1280" y="842" as="targetPoint" />
          </mxGeometry>
        </mxCell>
        <mxCell id="GJ2DIzfqfL1tHKUmEugE-235" value="Collects all staff preferences&amp;nbsp;and&lt;div&gt;perform basic validation&lt;/div&gt;" style="rounded=1;whiteSpace=wrap;html=1;" parent="1" vertex="1">
          <mxGeometry x="1150" y="722" width="220" height="80" as="geometry" />
        </mxCell>
        <mxCell id="GJ2DIzfqfL1tHKUmEugE-287" style="edgeStyle=orthogonalEdgeStyle;rounded=0;orthogonalLoop=1;jettySize=auto;html=1;exitX=0;exitY=0.5;exitDx=0;exitDy=0;entryX=0.5;entryY=1;entryDx=0;entryDy=0;" parent="1" source="GJ2DIzfqfL1tHKUmEugE-237" target="GJ2DIzfqfL1tHKUmEugE-233" edge="1">
          <mxGeometry relative="1" as="geometry" />
        </mxCell>
        <mxCell id="GJ2DIzfqfL1tHKUmEugE-288" value="Unsuccessful validation" style="edgeLabel;html=1;align=center;verticalAlign=middle;resizable=0;points=[];" parent="GJ2DIzfqfL1tHKUmEugE-287" vertex="1" connectable="0">
          <mxGeometry x="-0.0595" relative="1" as="geometry">
            <mxPoint x="26" as="offset" />
          </mxGeometry>
        </mxCell>
        <mxCell id="GJ2DIzfqfL1tHKUmEugE-292" style="edgeStyle=orthogonalEdgeStyle;rounded=0;orthogonalLoop=1;jettySize=auto;html=1;exitX=0.5;exitY=1;exitDx=0;exitDy=0;entryX=0.5;entryY=0;entryDx=0;entryDy=0;" parent="1" source="GJ2DIzfqfL1tHKUmEugE-237" target="GJ2DIzfqfL1tHKUmEugE-289" edge="1">
          <mxGeometry relative="1" as="geometry" />
        </mxCell>
        <mxCell id="GJ2DIzfqfL1tHKUmEugE-293" value="Successful validation" style="edgeLabel;html=1;align=center;verticalAlign=middle;resizable=0;points=[];" parent="GJ2DIzfqfL1tHKUmEugE-292" vertex="1" connectable="0">
          <mxGeometry x="-0.2579" y="-1" relative="1" as="geometry">
            <mxPoint as="offset" />
          </mxGeometry>
        </mxCell>
        <mxCell id="GJ2DIzfqfL1tHKUmEugE-237" value="" style="rhombus;whiteSpace=wrap;html=1;" parent="1" vertex="1">
          <mxGeometry x="1245" y="830" width="30" height="30" as="geometry" />
        </mxCell>
        <mxCell id="GJ2DIzfqfL1tHKUmEugE-279" style="edgeStyle=orthogonalEdgeStyle;rounded=0;orthogonalLoop=1;jettySize=auto;html=1;exitX=0;exitY=0;exitDx=0;exitDy=0;entryX=0.5;entryY=0;entryDx=0;entryDy=0;" parent="1" source="GJ2DIzfqfL1tHKUmEugE-227" target="GJ2DIzfqfL1tHKUmEugE-227" edge="1">
          <mxGeometry relative="1" as="geometry" />
        </mxCell>
        <mxCell id="GJ2DIzfqfL1tHKUmEugE-295" style="edgeStyle=orthogonalEdgeStyle;rounded=0;orthogonalLoop=1;jettySize=auto;html=1;exitX=0.5;exitY=1;exitDx=0;exitDy=0;entryX=0.5;entryY=0;entryDx=0;entryDy=0;" parent="1" source="GJ2DIzfqfL1tHKUmEugE-289" target="GJ2DIzfqfL1tHKUmEugE-294" edge="1">
          <mxGeometry relative="1" as="geometry" />
        </mxCell>
        <mxCell id="GJ2DIzfqfL1tHKUmEugE-289" value="Check for conflicts" style="rounded=1;whiteSpace=wrap;html=1;" parent="1" vertex="1">
          <mxGeometry x="1150" y="920" width="220" height="80" as="geometry" />
        </mxCell>
        <mxCell id="GJ2DIzfqfL1tHKUmEugE-298" style="edgeStyle=orthogonalEdgeStyle;rounded=0;orthogonalLoop=1;jettySize=auto;html=1;exitX=0.5;exitY=1;exitDx=0;exitDy=0;entryX=0.5;entryY=0;entryDx=0;entryDy=0;" parent="1" source="GJ2DIzfqfL1tHKUmEugE-294" target="GJ2DIzfqfL1tHKUmEugE-297" edge="1">
          <mxGeometry relative="1" as="geometry" />
        </mxCell>
        <mxCell id="GJ2DIzfqfL1tHKUmEugE-299" value="Conflict detected" style="edgeLabel;html=1;align=center;verticalAlign=middle;resizable=0;points=[];" parent="GJ2DIzfqfL1tHKUmEugE-298" vertex="1" connectable="0">
          <mxGeometry x="-0.2929" relative="1" as="geometry">
            <mxPoint y="1" as="offset" />
          </mxGeometry>
        </mxCell>
        <mxCell id="GJ2DIzfqfL1tHKUmEugE-303" style="edgeStyle=orthogonalEdgeStyle;rounded=0;orthogonalLoop=1;jettySize=auto;html=1;exitX=1;exitY=0.5;exitDx=0;exitDy=0;entryX=0.5;entryY=0;entryDx=0;entryDy=0;" parent="1" source="GJ2DIzfqfL1tHKUmEugE-294" target="GJ2DIzfqfL1tHKUmEugE-302" edge="1">
          <mxGeometry relative="1" as="geometry" />
        </mxCell>
        <mxCell id="GJ2DIzfqfL1tHKUmEugE-304" value="No conflict detected" style="edgeLabel;html=1;align=center;verticalAlign=middle;resizable=0;points=[];" parent="GJ2DIzfqfL1tHKUmEugE-303" vertex="1" connectable="0">
          <mxGeometry x="-0.2901" y="-1" relative="1" as="geometry">
            <mxPoint x="-48" as="offset" />
          </mxGeometry>
        </mxCell>
        <mxCell id="GJ2DIzfqfL1tHKUmEugE-294" value="" style="rhombus;whiteSpace=wrap;html=1;" parent="1" vertex="1">
          <mxGeometry x="1245" y="1030" width="30" height="30" as="geometry" />
        </mxCell>
        <mxCell id="GJ2DIzfqfL1tHKUmEugE-301" style="edgeStyle=orthogonalEdgeStyle;rounded=0;orthogonalLoop=1;jettySize=auto;html=1;exitX=0;exitY=0.5;exitDx=0;exitDy=0;entryX=1;entryY=0.5;entryDx=0;entryDy=0;" parent="1" source="GJ2DIzfqfL1tHKUmEugE-297" target="GJ2DIzfqfL1tHKUmEugE-300" edge="1">
          <mxGeometry relative="1" as="geometry" />
        </mxCell>
        <mxCell id="GJ2DIzfqfL1tHKUmEugE-297" value="Send alternative preference&amp;nbsp;notification based on&amp;nbsp;&lt;span style=&quot;background-color: initial;&quot;&gt;priority of&amp;nbsp;&lt;/span&gt;preference" style="rounded=1;whiteSpace=wrap;html=1;" parent="1" vertex="1">
          <mxGeometry x="1150" y="1110" width="220" height="80" as="geometry" />
        </mxCell>
        <mxCell id="GJ2DIzfqfL1tHKUmEugE-305" style="edgeStyle=orthogonalEdgeStyle;rounded=0;orthogonalLoop=1;jettySize=auto;html=1;exitX=0.5;exitY=0;exitDx=0;exitDy=0;entryX=0;entryY=0.5;entryDx=0;entryDy=0;" parent="1" source="GJ2DIzfqfL1tHKUmEugE-300" target="GJ2DIzfqfL1tHKUmEugE-294" edge="1">
          <mxGeometry relative="1" as="geometry" />
        </mxCell>
        <mxCell id="GJ2DIzfqfL1tHKUmEugE-300" value="Confirm alternative preference" style="rounded=1;whiteSpace=wrap;html=1;" parent="1" vertex="1">
          <mxGeometry x="870" y="1110" width="220" height="80" as="geometry" />
        </mxCell>
        <mxCell id="GJ2DIzfqfL1tHKUmEugE-308" style="edgeStyle=orthogonalEdgeStyle;rounded=0;orthogonalLoop=1;jettySize=auto;html=1;exitX=0.5;exitY=1;exitDx=0;exitDy=0;entryX=0.5;entryY=0;entryDx=0;entryDy=0;" parent="1" source="GJ2DIzfqfL1tHKUmEugE-302" target="GJ2DIzfqfL1tHKUmEugE-307" edge="1">
          <mxGeometry relative="1" as="geometry" />
        </mxCell>
        <mxCell id="GJ2DIzfqfL1tHKUmEugE-302" value="Confirm roster" style="rounded=1;whiteSpace=wrap;html=1;" parent="1" vertex="1">
          <mxGeometry x="1420" y="1200" width="220" height="80" as="geometry" />
        </mxCell>
        <mxCell id="GJ2DIzfqfL1tHKUmEugE-307" value="" style="ellipse;html=1;shape=endState;fillColor=#000000;strokeColor=#ff0000;" parent="1" vertex="1">
          <mxGeometry x="1515" y="1320" width="30" height="30" as="geometry" />
        </mxCell>
        <mxCell id="GJ2DIzfqfL1tHKUmEugE-313" value=":Shift" style="shape=umlLifeline;perimeter=lifelinePerimeter;whiteSpace=wrap;html=1;container=1;dropTarget=0;collapsible=0;recursiveResize=0;outlineConnect=0;portConstraint=eastwest;newEdgeStyle={&quot;curved&quot;:0,&quot;rounded&quot;:0};movable=1;resizable=1;rotatable=1;deletable=1;editable=1;locked=0;connectable=1;" parent="1" vertex="1">
          <mxGeometry x="2080" y="600" width="120" height="880" as="geometry" />
        </mxCell>
        <mxCell id="GJ2DIzfqfL1tHKUmEugE-315" value=":Manager" style="shape=umlLifeline;perimeter=lifelinePerimeter;whiteSpace=wrap;html=1;container=1;dropTarget=0;collapsible=0;recursiveResize=0;outlineConnect=0;portConstraint=eastwest;newEdgeStyle={&quot;curved&quot;:0,&quot;rounded&quot;:0};" parent="1" vertex="1">
          <mxGeometry x="2240" y="600" width="120" height="880" as="geometry" />
        </mxCell>
        <mxCell id="GJ2DIzfqfL1tHKUmEugE-349" value=":Application" style="shape=umlLifeline;perimeter=lifelinePerimeter;whiteSpace=wrap;html=1;container=0;dropTarget=0;collapsible=0;recursiveResize=0;outlineConnect=0;portConstraint=eastwest;newEdgeStyle={&quot;curved&quot;:0,&quot;rounded&quot;:0};movable=1;resizable=1;rotatable=1;deletable=1;editable=1;locked=0;connectable=1;" parent="1" vertex="1">
          <mxGeometry x="1920" y="600" width="120" height="880" as="geometry" />
        </mxCell>
        <mxCell id="GJ2DIzfqfL1tHKUmEugE-374" style="edgeStyle=orthogonalEdgeStyle;rounded=0;orthogonalLoop=1;jettySize=auto;html=1;curved=0;labelPosition=center;verticalLabelPosition=top;align=center;verticalAlign=bottom;" parent="1" edge="1">
          <mxGeometry relative="1" as="geometry">
            <mxPoint x="1819.9992592592591" y="679.997037037037" as="sourcePoint" />
            <mxPoint x="1980" y="680" as="targetPoint" />
          </mxGeometry>
        </mxCell>
        <mxCell id="GJ2DIzfqfL1tHKUmEugE-375" value="submit_preference()" style="edgeLabel;html=1;align=center;verticalAlign=bottom;resizable=0;points=[];labelPosition=center;verticalLabelPosition=top;" parent="GJ2DIzfqfL1tHKUmEugE-374" vertex="1" connectable="0">
          <mxGeometry x="-0.228" y="3" relative="1" as="geometry">
            <mxPoint x="18" as="offset" />
          </mxGeometry>
        </mxCell>
        <mxCell id="GJ2DIzfqfL1tHKUmEugE-370" value=":Nurse" style="shape=umlLifeline;perimeter=lifelinePerimeter;whiteSpace=wrap;html=1;container=0;dropTarget=0;collapsible=0;recursiveResize=0;outlineConnect=0;portConstraint=eastwest;newEdgeStyle={&quot;curved&quot;:0,&quot;rounded&quot;:0};movable=1;resizable=1;rotatable=1;deletable=1;editable=1;locked=0;connectable=1;" parent="1" vertex="1">
          <mxGeometry x="1760" y="600" width="120" height="880" as="geometry" />
        </mxCell>
        <mxCell id="GJ2DIzfqfL1tHKUmEugE-376" style="edgeStyle=orthogonalEdgeStyle;rounded=0;orthogonalLoop=1;jettySize=auto;html=1;curved=0;labelPosition=center;verticalLabelPosition=top;align=center;verticalAlign=bottom;" parent="1" edge="1">
          <mxGeometry relative="1" as="geometry">
            <mxPoint x="1979.9992592592591" y="759.997037037037" as="sourcePoint" />
            <mxPoint x="2140" y="760" as="targetPoint" />
          </mxGeometry>
        </mxCell>
        <mxCell id="GJ2DIzfqfL1tHKUmEugE-377" value="send_preference()" style="edgeLabel;html=1;align=center;verticalAlign=bottom;resizable=0;points=[];labelPosition=center;verticalLabelPosition=top;" parent="GJ2DIzfqfL1tHKUmEugE-376" vertex="1" connectable="0">
          <mxGeometry x="-0.228" y="3" relative="1" as="geometry">
            <mxPoint x="17" as="offset" />
          </mxGeometry>
        </mxCell>
        <mxCell id="GJ2DIzfqfL1tHKUmEugE-378" value="alt" style="shape=umlFrame;whiteSpace=wrap;html=1;pointerEvents=0;" parent="1" vertex="1">
          <mxGeometry x="1720" y="720" width="500" height="170" as="geometry" />
        </mxCell>
        <mxCell id="GJ2DIzfqfL1tHKUmEugE-381" value="Pass validation" style="text;align=left;verticalAlign=middle;resizable=0;points=[];autosize=1;strokeColor=none;fillColor=none;html=1;fontSize=8;" parent="1" vertex="1">
          <mxGeometry x="1730" y="750" width="80" height="20" as="geometry" />
        </mxCell>
        <mxCell id="GJ2DIzfqfL1tHKUmEugE-384" value="" style="endArrow=none;dashed=1;html=1;rounded=0;" parent="1" edge="1">
          <mxGeometry width="50" height="50" relative="1" as="geometry">
            <mxPoint x="2220" y="780" as="sourcePoint" />
            <mxPoint x="1720" y="780" as="targetPoint" />
          </mxGeometry>
        </mxCell>
        <mxCell id="GJ2DIzfqfL1tHKUmEugE-386" value="Else" style="text;align=left;verticalAlign=middle;resizable=0;points=[];autosize=1;strokeColor=none;fillColor=none;html=1;fontSize=8;" parent="1" vertex="1">
          <mxGeometry x="1730" y="782" width="40" height="20" as="geometry" />
        </mxCell>
        <mxCell id="GJ2DIzfqfL1tHKUmEugE-387" value="validation_fail()" style="html=1;verticalAlign=bottom;endArrow=open;dashed=1;endSize=8;curved=0;rounded=0;" parent="1" edge="1">
          <mxGeometry relative="1" as="geometry">
            <mxPoint x="1980" y="810" as="sourcePoint" />
            <mxPoint x="1820" y="810" as="targetPoint" />
          </mxGeometry>
        </mxCell>
        <mxCell id="GJ2DIzfqfL1tHKUmEugE-389" value="alt" style="shape=umlFrame;whiteSpace=wrap;html=1;pointerEvents=0;" parent="1" vertex="1">
          <mxGeometry x="1720" y="960" width="680" height="390" as="geometry" />
        </mxCell>
        <mxCell id="GJ2DIzfqfL1tHKUmEugE-392" value="" style="rounded=0;whiteSpace=wrap;html=1;" parent="1" vertex="1">
          <mxGeometry x="2135" y="740" width="10" height="690" as="geometry" />
        </mxCell>
        <mxCell id="GJ2DIzfqfL1tHKUmEugE-393" style="edgeStyle=orthogonalEdgeStyle;rounded=0;orthogonalLoop=1;jettySize=auto;html=1;" parent="1" edge="1">
          <mxGeometry relative="1" as="geometry">
            <mxPoint x="2145" y="910" as="sourcePoint" />
            <mxPoint x="2145" y="940" as="targetPoint" />
            <Array as="points">
              <mxPoint x="2145" y="910" />
              <mxPoint x="2210" y="910" />
              <mxPoint x="2210" y="940" />
              <mxPoint x="2145" y="940" />
            </Array>
          </mxGeometry>
        </mxCell>
        <mxCell id="GJ2DIzfqfL1tHKUmEugE-395" value="check_conflict()" style="edgeLabel;html=1;align=center;verticalAlign=middle;resizable=0;points=[];" parent="GJ2DIzfqfL1tHKUmEugE-393" vertex="1" connectable="0">
          <mxGeometry x="-0.0522" relative="1" as="geometry">
            <mxPoint y="4" as="offset" />
          </mxGeometry>
        </mxCell>
        <mxCell id="GJ2DIzfqfL1tHKUmEugE-396" value="send_conflicts()" style="html=1;verticalAlign=bottom;endArrow=block;curved=0;rounded=0;dashed=1;" parent="1" target="GJ2DIzfqfL1tHKUmEugE-349" edge="1">
          <mxGeometry width="80" relative="1" as="geometry">
            <mxPoint x="2140" y="1000" as="sourcePoint" />
            <mxPoint x="2090" y="1000" as="targetPoint" />
          </mxGeometry>
        </mxCell>
        <mxCell id="GJ2DIzfqfL1tHKUmEugE-397" value="" style="rounded=0;whiteSpace=wrap;html=1;" parent="1" vertex="1">
          <mxGeometry x="1975" y="660" width="10" height="800" as="geometry" />
        </mxCell>
        <mxCell id="GJ2DIzfqfL1tHKUmEugE-398" style="edgeStyle=orthogonalEdgeStyle;rounded=0;orthogonalLoop=1;jettySize=auto;html=1;exitX=1;exitY=0.25;exitDx=0;exitDy=0;" parent="1" edge="1">
          <mxGeometry relative="1" as="geometry">
            <mxPoint x="1985" y="1020" as="sourcePoint" />
            <mxPoint x="1985" y="1060" as="targetPoint" />
            <Array as="points">
              <mxPoint x="2050" y="1020" />
              <mxPoint x="2050" y="1060" />
              <mxPoint x="1985" y="1060" />
            </Array>
          </mxGeometry>
        </mxCell>
        <mxCell id="GJ2DIzfqfL1tHKUmEugE-399" value="sort_priority()" style="edgeLabel;html=1;align=center;verticalAlign=middle;resizable=0;points=[];" parent="GJ2DIzfqfL1tHKUmEugE-398" vertex="1" connectable="0">
          <mxGeometry x="-0.0522" relative="1" as="geometry">
            <mxPoint y="5" as="offset" />
          </mxGeometry>
        </mxCell>
        <mxCell id="GJ2DIzfqfL1tHKUmEugE-400" value="request_alt()" style="html=1;verticalAlign=bottom;endArrow=block;curved=0;rounded=0;" parent="1" edge="1">
          <mxGeometry width="80" relative="1" as="geometry">
            <mxPoint x="1980" y="1080" as="sourcePoint" />
            <mxPoint x="1820" y="1080" as="targetPoint" />
          </mxGeometry>
        </mxCell>
        <mxCell id="GJ2DIzfqfL1tHKUmEugE-401" value="submit_alt_preference()" style="html=1;verticalAlign=bottom;endArrow=block;curved=0;rounded=0;dashed=1;" parent="1" edge="1">
          <mxGeometry width="80" relative="1" as="geometry">
            <mxPoint x="1820" y="1120" as="sourcePoint" />
            <mxPoint x="1979.5" y="1120" as="targetPoint" />
          </mxGeometry>
        </mxCell>
        <mxCell id="GJ2DIzfqfL1tHKUmEugE-402" value="send_alt_preferences()" style="html=1;verticalAlign=bottom;endArrow=block;curved=0;rounded=0;" parent="1" edge="1">
          <mxGeometry width="80" relative="1" as="geometry">
            <mxPoint x="1980" y="1150" as="sourcePoint" />
            <mxPoint x="2139.5" y="1150.0000000000002" as="targetPoint" />
          </mxGeometry>
        </mxCell>
        <mxCell id="GJ2DIzfqfL1tHKUmEugE-403" value="notify_approved()" style="html=1;verticalAlign=bottom;endArrow=block;curved=0;rounded=0;" parent="1" edge="1">
          <mxGeometry width="80" relative="1" as="geometry">
            <mxPoint x="2140" y="1260" as="sourcePoint" />
            <mxPoint x="2299.5" y="1260" as="targetPoint" />
          </mxGeometry>
        </mxCell>
        <mxCell id="GJ2DIzfqfL1tHKUmEugE-408" style="edgeStyle=orthogonalEdgeStyle;rounded=0;orthogonalLoop=1;jettySize=auto;html=1;exitX=1;exitY=0.25;exitDx=0;exitDy=0;" parent="1" edge="1">
          <mxGeometry relative="1" as="geometry">
            <mxPoint x="2145" y="1180" as="sourcePoint" />
            <mxPoint x="2145" y="1217.5" as="targetPoint" />
            <Array as="points">
              <mxPoint x="2210" y="1180.5" />
              <mxPoint x="2210" y="1217.5" />
              <mxPoint x="2145" y="1217.5" />
            </Array>
          </mxGeometry>
        </mxCell>
        <mxCell id="GJ2DIzfqfL1tHKUmEugE-409" value="approve_roster()" style="edgeLabel;html=1;align=center;verticalAlign=middle;resizable=0;points=[];" parent="GJ2DIzfqfL1tHKUmEugE-408" vertex="1" connectable="0">
          <mxGeometry x="-0.0522" relative="1" as="geometry">
            <mxPoint y="5" as="offset" />
          </mxGeometry>
        </mxCell>
        <mxCell id="GJ2DIzfqfL1tHKUmEugE-411" value="" style="endArrow=none;dashed=1;html=1;rounded=0;" parent="1" edge="1">
          <mxGeometry width="50" height="50" relative="1" as="geometry">
            <mxPoint x="1720" y="1290" as="sourcePoint" />
            <mxPoint x="2400" y="1290" as="targetPoint" />
          </mxGeometry>
        </mxCell>
        <mxCell id="GJ2DIzfqfL1tHKUmEugE-412" value="Conflicts" style="text;align=left;verticalAlign=middle;resizable=0;points=[];autosize=1;strokeColor=none;fillColor=none;html=1;fontSize=8;" parent="1" vertex="1">
          <mxGeometry x="1730" y="990" width="50" height="20" as="geometry" />
        </mxCell>
        <mxCell id="GJ2DIzfqfL1tHKUmEugE-413" value="No conflicts" style="text;align=left;verticalAlign=middle;resizable=0;points=[];autosize=1;strokeColor=none;fillColor=none;html=1;fontSize=8;" parent="1" vertex="1">
          <mxGeometry x="1730" y="1290" width="60" height="20" as="geometry" />
        </mxCell>
        <mxCell id="GJ2DIzfqfL1tHKUmEugE-418" value="notify_approved()" style="html=1;verticalAlign=bottom;endArrow=block;curved=0;rounded=0;" parent="1" edge="1">
          <mxGeometry width="80" relative="1" as="geometry">
            <mxPoint x="2140.001764705883" y="1320" as="sourcePoint" />
            <mxPoint x="2300.09" y="1320" as="targetPoint" />
          </mxGeometry>
        </mxCell>
        <mxCell id="GJ2DIzfqfL1tHKUmEugE-420" value="confirm_approved()" style="html=1;verticalAlign=bottom;endArrow=block;curved=0;rounded=0;dashed=1;" parent="1" edge="1">
          <mxGeometry width="80" relative="1" as="geometry">
            <mxPoint x="2305" y="1380" as="sourcePoint" />
            <mxPoint x="2145" y="1380" as="targetPoint" />
          </mxGeometry>
        </mxCell>
        <mxCell id="GJ2DIzfqfL1tHKUmEugE-421" value="send_approved()" style="html=1;verticalAlign=bottom;endArrow=block;curved=0;rounded=0;" parent="1" edge="1">
          <mxGeometry width="80" relative="1" as="geometry">
            <mxPoint x="2140" y="1410" as="sourcePoint" />
            <mxPoint x="1980" y="1410" as="targetPoint" />
          </mxGeometry>
        </mxCell>
        <mxCell id="GJ2DIzfqfL1tHKUmEugE-422" value="display_approved()" style="html=1;verticalAlign=bottom;endArrow=block;curved=0;rounded=0;" parent="1" edge="1">
          <mxGeometry width="80" relative="1" as="geometry">
            <mxPoint x="1979.83" y="1440" as="sourcePoint" />
            <mxPoint x="1819.9966666666664" y="1440" as="targetPoint" />
          </mxGeometry>
        </mxCell>
        <mxCell id="GJ2DIzfqfL1tHKUmEugE-423" value="" style="rounded=0;whiteSpace=wrap;html=1;" parent="1" vertex="1">
          <mxGeometry x="2295" y="1240" width="10" height="160" as="geometry" />
        </mxCell>
        <mxCell id="GJ2DIzfqfL1tHKUmEugE-424" style="edgeStyle=orthogonalEdgeStyle;rounded=0;orthogonalLoop=1;jettySize=auto;html=1;curved=0;labelPosition=center;verticalLabelPosition=top;align=center;verticalAlign=bottom;" parent="1" edge="1">
          <mxGeometry relative="1" as="geometry">
            <mxPoint x="1819.9992592592591" y="849.997037037037" as="sourcePoint" />
            <mxPoint x="1980" y="850" as="targetPoint" />
          </mxGeometry>
        </mxCell>
        <mxCell id="GJ2DIzfqfL1tHKUmEugE-425" value="submit_preference()" style="edgeLabel;html=1;align=center;verticalAlign=bottom;resizable=0;points=[];labelPosition=center;verticalLabelPosition=top;" parent="GJ2DIzfqfL1tHKUmEugE-424" vertex="1" connectable="0">
          <mxGeometry x="-0.228" y="3" relative="1" as="geometry">
            <mxPoint x="18" as="offset" />
          </mxGeometry>
        </mxCell>
        <mxCell id="GJ2DIzfqfL1tHKUmEugE-426" style="edgeStyle=orthogonalEdgeStyle;rounded=0;orthogonalLoop=1;jettySize=auto;html=1;curved=0;labelPosition=center;verticalLabelPosition=top;align=center;verticalAlign=bottom;" parent="1" edge="1">
          <mxGeometry relative="1" as="geometry">
            <mxPoint x="1979.9992592592591" y="869.997037037037" as="sourcePoint" />
            <mxPoint x="2140" y="870" as="targetPoint" />
          </mxGeometry>
        </mxCell>
        <mxCell id="GJ2DIzfqfL1tHKUmEugE-427" value="send_preference()" style="edgeLabel;html=1;align=center;verticalAlign=bottom;resizable=0;points=[];labelPosition=center;verticalLabelPosition=top;" parent="GJ2DIzfqfL1tHKUmEugE-426" vertex="1" connectable="0">
          <mxGeometry x="-0.228" y="3" relative="1" as="geometry">
            <mxPoint x="17" as="offset" />
          </mxGeometry>
        </mxCell>
        <mxCell id="GJ2DIzfqfL1tHKUmEugE-441" value="&lt;div style=&quot;box-sizing: border-box; width: 100%; background: rgb(228, 228, 228); padding: 2px; line-height: 150%;&quot;&gt;Nurse&lt;/div&gt;&lt;table style=&quot;width:100%;font-size:1em;&quot; cellpadding=&quot;2&quot; cellspacing=&quot;0&quot;&gt;&lt;tbody&gt;&lt;tr&gt;&lt;td&gt;PK&lt;/td&gt;&lt;td&gt;&lt;u&gt;user_id&lt;/u&gt;&lt;/td&gt;&lt;/tr&gt;&lt;tr&gt;&lt;td&gt;&lt;br&gt;&lt;/td&gt;&lt;td&gt;band&lt;/td&gt;&lt;/tr&gt;&lt;tr&gt;&lt;td&gt;&lt;/td&gt;&lt;td&gt;seniority&lt;br&gt;&lt;/td&gt;&lt;/tr&gt;&lt;tr&gt;&lt;td&gt;&lt;br&gt;&lt;/td&gt;&lt;td&gt;can_charge&lt;/td&gt;&lt;/tr&gt;&lt;tr&gt;&lt;td&gt;&lt;br&gt;&lt;/td&gt;&lt;td&gt;contract_type&lt;/td&gt;&lt;/tr&gt;&lt;/tbody&gt;&lt;/table&gt;" style="verticalAlign=top;align=left;overflow=fill;html=1;whiteSpace=wrap;" parent="1" vertex="1">
          <mxGeometry x="160" y="1720" width="200" height="130" as="geometry" />
        </mxCell>
        <mxCell id="GJ2DIzfqfL1tHKUmEugE-442" value="&lt;div style=&quot;box-sizing:border-box;width:100%;background:#e4e4e4;padding:2px;&quot;&gt;Manager&lt;/div&gt;&lt;table style=&quot;width:100%;font-size:1em;&quot; cellpadding=&quot;2&quot; cellspacing=&quot;0&quot;&gt;&lt;tbody&gt;&lt;tr&gt;&lt;td&gt;PK&lt;/td&gt;&lt;td&gt;&lt;u&gt;user_id&lt;/u&gt;&lt;/td&gt;&lt;/tr&gt;&lt;tr&gt;&lt;td&gt;&lt;br&gt;&lt;/td&gt;&lt;td&gt;band&lt;/td&gt;&lt;/tr&gt;&lt;tr&gt;&lt;td&gt;&lt;/td&gt;&lt;td&gt;authority&lt;br&gt;&lt;br&gt;&lt;/td&gt;&lt;/tr&gt;&lt;/tbody&gt;&lt;/table&gt;" style="verticalAlign=top;align=left;overflow=fill;html=1;whiteSpace=wrap;" parent="1" vertex="1">
          <mxGeometry x="400" y="1720" width="200" height="80" as="geometry" />
        </mxCell>
        <mxCell id="GJ2DIzfqfL1tHKUmEugE-445" value="&lt;div style=&quot;box-sizing:border-box;width:100%;background:#e4e4e4;padding:2px;&quot;&gt;Month&lt;/div&gt;&lt;table style=&quot;width:100%;font-size:1em;&quot; cellpadding=&quot;2&quot; cellspacing=&quot;0&quot;&gt;&lt;tbody&gt;&lt;tr&gt;&lt;td&gt;PK&lt;/td&gt;&lt;td&gt;&lt;u&gt;month_id&lt;/u&gt;&lt;/td&gt;&lt;/tr&gt;&lt;tr&gt;&lt;td&gt;&lt;br&gt;&lt;/td&gt;&lt;td&gt;year&lt;/td&gt;&lt;/tr&gt;&lt;tr&gt;&lt;td&gt;&lt;/td&gt;&lt;td&gt;month&lt;/td&gt;&lt;/tr&gt;&lt;/tbody&gt;&lt;/table&gt;" style="verticalAlign=top;align=left;overflow=fill;html=1;whiteSpace=wrap;" parent="1" vertex="1">
          <mxGeometry x="160" y="1880" width="200" height="80" as="geometry" />
        </mxCell>
        <mxCell id="GJ2DIzfqfL1tHKUmEugE-447" value="&lt;div style=&quot;box-sizing: border-box; width: 100%; background: rgb(228, 228, 228); padding: 2px; line-height: 150%;&quot;&gt;User&lt;/div&gt;&lt;table style=&quot;width:100%;font-size:1em;&quot; cellpadding=&quot;2&quot; cellspacing=&quot;0&quot;&gt;&lt;tbody&gt;&lt;tr&gt;&lt;td&gt;PK&lt;/td&gt;&lt;td&gt;&lt;u&gt;user_id&lt;/u&gt;&lt;/td&gt;&lt;/tr&gt;&lt;tr&gt;&lt;td&gt;&lt;br&gt;&lt;/td&gt;&lt;td&gt;firstname&lt;/td&gt;&lt;/tr&gt;&lt;tr&gt;&lt;td&gt;&lt;/td&gt;&lt;td&gt;lastname&lt;/td&gt;&lt;/tr&gt;&lt;tr&gt;&lt;td&gt;&lt;br&gt;&lt;/td&gt;&lt;td&gt;email&lt;/td&gt;&lt;/tr&gt;&lt;tr&gt;&lt;td&gt;&lt;br&gt;&lt;/td&gt;&lt;td&gt;password&lt;/td&gt;&lt;/tr&gt;&lt;tr&gt;&lt;td&gt;&lt;br&gt;&lt;/td&gt;&lt;td&gt;&lt;br&gt;&lt;/td&gt;&lt;/tr&gt;&lt;/tbody&gt;&lt;/table&gt;" style="verticalAlign=top;align=left;overflow=fill;html=1;whiteSpace=wrap;" parent="1" vertex="1">
          <mxGeometry x="160" y="1520" width="200" height="140" as="geometry" />
        </mxCell>
        <mxCell id="GJ2DIzfqfL1tHKUmEugE-448" value="&lt;div style=&quot;box-sizing:border-box;width:100%;background:#e4e4e4;padding:2px;&quot;&gt;Day&lt;/div&gt;&lt;table style=&quot;width:100%;font-size:1em;&quot; cellpadding=&quot;2&quot; cellspacing=&quot;0&quot;&gt;&lt;tbody&gt;&lt;tr&gt;&lt;td&gt;PK&lt;/td&gt;&lt;td&gt;&lt;u&gt;day_id&lt;/u&gt;&lt;/td&gt;&lt;/tr&gt;&lt;tr&gt;&lt;td&gt;&lt;br&gt;&lt;/td&gt;&lt;td&gt;month_id&lt;/td&gt;&lt;/tr&gt;&lt;tr&gt;&lt;td&gt;&lt;/td&gt;&lt;td&gt;day&lt;/td&gt;&lt;/tr&gt;&lt;/tbody&gt;&lt;/table&gt;" style="verticalAlign=top;align=left;overflow=fill;html=1;whiteSpace=wrap;" parent="1" vertex="1">
          <mxGeometry x="640" y="1880" width="200" height="80" as="geometry" />
        </mxCell>
        <mxCell id="GJ2DIzfqfL1tHKUmEugE-451" value="&lt;div style=&quot;box-sizing: border-box; width: 100%; background: rgb(228, 228, 228); padding: 2px; line-height: 150%;&quot;&gt;Shift&lt;/div&gt;&lt;table style=&quot;width:100%;font-size:1em;&quot; cellpadding=&quot;2&quot; cellspacing=&quot;0&quot;&gt;&lt;tbody&gt;&lt;tr&gt;&lt;td&gt;PK&lt;/td&gt;&lt;td&gt;&lt;u&gt;shift_id&lt;/u&gt;&lt;/td&gt;&lt;/tr&gt;&lt;tr&gt;&lt;td&gt;&lt;br&gt;&lt;/td&gt;&lt;td&gt;day_id&lt;/td&gt;&lt;/tr&gt;&lt;tr&gt;&lt;td&gt;&lt;br&gt;&lt;/td&gt;&lt;td&gt;is_day&lt;/td&gt;&lt;/tr&gt;&lt;tr&gt;&lt;td&gt;&lt;br&gt;&lt;/td&gt;&lt;td&gt;approved_staff&lt;/td&gt;&lt;/tr&gt;&lt;tr&gt;&lt;td&gt;&lt;br&gt;&lt;/td&gt;&lt;td&gt;minimum_staff&lt;/td&gt;&lt;/tr&gt;&lt;tr&gt;&lt;td&gt;&lt;br&gt;&lt;/td&gt;&lt;td&gt;maximum_staff&lt;/td&gt;&lt;/tr&gt;&lt;tr&gt;&lt;td&gt;&lt;br&gt;&lt;/td&gt;&lt;td&gt;optimal_staff&lt;/td&gt;&lt;/tr&gt;&lt;tr&gt;&lt;td&gt;&lt;br&gt;&lt;/td&gt;&lt;td&gt;status&lt;/td&gt;&lt;/tr&gt;&lt;/tbody&gt;&lt;/table&gt;" style="verticalAlign=top;align=left;overflow=fill;html=1;whiteSpace=wrap;" parent="1" vertex="1">
          <mxGeometry x="160" y="2070" width="200" height="180" as="geometry" />
        </mxCell>
        <mxCell id="GJ2DIzfqfL1tHKUmEugE-452" value="&lt;div style=&quot;box-sizing: border-box; width: 100%; background: rgb(228, 228, 228); padding: 2px; line-height: 150%;&quot;&gt;Request&lt;/div&gt;&lt;table style=&quot;width:100%;font-size:1em;&quot; cellpadding=&quot;2&quot; cellspacing=&quot;0&quot;&gt;&lt;tbody&gt;&lt;tr&gt;&lt;td&gt;PK&lt;/td&gt;&lt;td&gt;&lt;u&gt;request_id&lt;/u&gt;&lt;/td&gt;&lt;/tr&gt;&lt;tr&gt;&lt;td&gt;&lt;br&gt;&lt;/td&gt;&lt;td&gt;shift_id&lt;/td&gt;&lt;/tr&gt;&lt;tr&gt;&lt;td&gt;&lt;br&gt;&lt;/td&gt;&lt;td&gt;user_id&lt;/td&gt;&lt;/tr&gt;&lt;tr&gt;&lt;td&gt;&lt;br&gt;&lt;/td&gt;&lt;td&gt;priority&lt;/td&gt;&lt;/tr&gt;&lt;tr&gt;&lt;td&gt;&lt;br&gt;&lt;/td&gt;&lt;td&gt;request_date&lt;/td&gt;&lt;/tr&gt;&lt;tr&gt;&lt;td&gt;&lt;br&gt;&lt;/td&gt;&lt;td&gt;status&lt;/td&gt;&lt;/tr&gt;&lt;/tbody&gt;&lt;/table&gt;" style="verticalAlign=top;align=left;overflow=fill;html=1;whiteSpace=wrap;" parent="1" vertex="1">
          <mxGeometry x="400" y="2070" width="200" height="140" as="geometry" />
        </mxCell>
        <mxCell id="GJ2DIzfqfL1tHKUmEugE-453" value="&lt;div style=&quot;box-sizing: border-box; width: 100%; background: rgb(228, 228, 228); padding: 2px; line-height: 150%;&quot;&gt;Approved&lt;/div&gt;&lt;table style=&quot;width:100%;font-size:1em;&quot; cellpadding=&quot;2&quot; cellspacing=&quot;0&quot;&gt;&lt;tbody&gt;&lt;tr&gt;&lt;td&gt;PK&lt;/td&gt;&lt;td&gt;&lt;u&gt;request_id&lt;/u&gt;&lt;br&gt;&lt;/td&gt;&lt;/tr&gt;&lt;tr&gt;&lt;td&gt;&lt;br&gt;&lt;/td&gt;&lt;td&gt;shift_id&lt;/td&gt;&lt;/tr&gt;&lt;tr&gt;&lt;td&gt;&lt;br&gt;&lt;/td&gt;&lt;td&gt;status&lt;/td&gt;&lt;/tr&gt;&lt;tr&gt;&lt;td&gt;&lt;br&gt;&lt;/td&gt;&lt;td&gt;approval_date&lt;/td&gt;&lt;/tr&gt;&lt;tr&gt;&lt;td&gt;&lt;br&gt;&lt;/td&gt;&lt;td&gt;approved_by&lt;/td&gt;&lt;/tr&gt;&lt;tr&gt;&lt;td&gt;&lt;br&gt;&lt;/td&gt;&lt;td&gt;&lt;br&gt;&lt;/td&gt;&lt;/tr&gt;&lt;/tbody&gt;&lt;/table&gt;" style="verticalAlign=top;align=left;overflow=fill;html=1;whiteSpace=wrap;" parent="1" vertex="1">
          <mxGeometry x="640" y="2070" width="200" height="140" as="geometry" />
        </mxCell>
        <mxCell id="HhnYmGVY0W8ndUFzemIP-1" value="&lt;div style=&quot;box-sizing:border-box;width:100%;background:#e4e4e4;padding:2px;&quot;&gt;Week&lt;/div&gt;&lt;table style=&quot;width:100%;font-size:1em;&quot; cellpadding=&quot;2&quot; cellspacing=&quot;0&quot;&gt;&lt;tbody&gt;&lt;tr&gt;&lt;td&gt;PK&lt;/td&gt;&lt;td&gt;&lt;u&gt;week_id&lt;/u&gt;&lt;/td&gt;&lt;/tr&gt;&lt;tr&gt;&lt;td&gt;&lt;br&gt;&lt;/td&gt;&lt;td&gt;&lt;u&gt;user_id&lt;/u&gt;&lt;/td&gt;&lt;/tr&gt;&lt;tr&gt;&lt;td&gt;&lt;/td&gt;&lt;td&gt;year&lt;/td&gt;&lt;/tr&gt;&lt;tr&gt;&lt;td&gt;&lt;br&gt;&lt;/td&gt;&lt;td&gt;status&lt;/td&gt;&lt;/tr&gt;&lt;tr&gt;&lt;td&gt;&lt;br&gt;&lt;/td&gt;&lt;td&gt;week_start&lt;/td&gt;&lt;/tr&gt;&lt;tr&gt;&lt;td&gt;&lt;br&gt;&lt;/td&gt;&lt;td&gt;week_end&lt;/td&gt;&lt;/tr&gt;&lt;/tbody&gt;&lt;/table&gt;" style="verticalAlign=top;align=left;overflow=fill;html=1;whiteSpace=wrap;" vertex="1" parent="1">
          <mxGeometry x="400" y="1880" width="200" height="140" as="geometry" />
        </mxCell>
      </root>
    </mxGraphModel>
  </diagram>
</mxfile>
